<svg xmlns="http://www.w3.org/2000/svg" width="16.041" height="16" viewBox="0 0 16.041 16"><path d="M15.995,14.16l-1.12-8a1.568,1.568,0,0,0-1.6-1.36h-1.28V4a3.866,3.866,0,0,0-4-4,3.961,3.961,0,0,0-4,4v.8H2.955a1.9,1.9,0,0,0-1.84,1.36l-1.12,8A1.62,1.62,0,0,0,1.595,16h12.8A1.62,1.62,0,0,0,15.995,14.16ZM5.595,4a2.357,2.357,0,0,1,2.4-2.4,2.225,2.225,0,0,1,2.4,2.4v.8h-4.8Zm7.84,10.4H2.555a.778.778,0,0,1-.8-.88l.88-6.4a.851.851,0,0,1,.8-.72h.56V8a.756.756,0,0,0,.8.8.756.756,0,0,0,.8-.8V6.4h4.8V8a.8.8,0,1,0,1.6,0V6.4h.56a.851.851,0,0,1,.8.72l.88,6.4A.741.741,0,0,1,13.435,14.4Z" transform="translate(0.026)" fill="#db9351"/></svg>